<svg width="251" height="139" viewBox="0 0 251 139" fill="none" xmlns="http://www.w3.org/2000/svg">
<path d="M218.31 52.5361V43.4341C218.31 41.8932 219.154 40.4761 220.509 39.7421L221.937 38.9689C222.99 38.3986 224.236 38.3051 225.363 38.7105C228.229 39.7416 232.21 41.1649 233.495 41.5935C235.08 42.1216 236.503 41.8135 237.016 41.5935C237.897 41.1533 240.553 39.6053 244.499 37.6322C246.7 36.5318 246.48 33.1415 244.719 32.5706C242.005 31.6903 235.432 29.5336 233.495 28.8293C232.441 28.4458 231.599 28.393 230.992 28.4718C230.273 28.5652 229.652 28.9919 229.005 29.3188C221.323 33.1957 207.387 40.2071 206.207 40.7132C204.974 41.2414 204.666 42.5471 204.666 43.134V54.7977C204.666 55.8541 205.106 56.5583 205.326 56.7784C208.04 59.566 213.601 65.2731 214.129 65.8013C214.483 66.1556 215.32 66.1336 216.053 66.0143C216.685 65.9116 217.276 65.6544 217.845 65.3624L231.244 58.4869C232.717 57.731 234.509 58.0123 235.68 59.183C236.395 59.8979 236.796 60.8675 236.796 61.8786V74.4088C236.796 76.4168 235.662 78.2524 233.866 79.1504C232.385 79.8911 230.642 79.8974 229.157 79.1646C224.409 76.8222 217.735 73.5104 216.99 73.0637C216.11 72.5355 214.716 72.8436 214.129 73.0637C211.635 74.3107 206.383 76.9809 205.326 77.6852C205.219 77.7565 205.129 77.8405 205.055 77.9348C203.671 79.6829 206.393 81.7549 208.374 82.7769C213.654 85.5006 220.816 89.2088 221.832 89.7891C223.064 90.4933 224.692 90.0825 225.353 89.7891C233.055 85.8278 248.636 77.8172 249.34 77.4651C250.045 77.113 250.221 75.9979 250.221 75.4844V60.0795C250.221 59.2773 250.129 58.6884 250.009 58.271C249.832 57.6571 249.331 57.2164 248.875 56.7686C246.237 54.1769 241.927 49.8055 241.198 49.0759C240.538 48.4157 239.437 48.4157 238.117 49.0759L223.869 56.0123C222.386 56.7341 220.609 56.4361 219.443 55.2699C218.718 54.5449 218.31 53.5615 218.31 52.5361Z" fill="white"/>
<path d="M169.015 69.8594V20.6046C169.015 19.637 168.881 18.675 168.62 17.7434C167.29 13.0008 165.152 5.1488 164.833 3.08099C164.481 0.792254 167.474 -0.440145 168.795 0.880282L168.903 0.988876C172.49 4.57516 178.386 4.6501 181.779 0.880282C183.165 -0.660215 186.62 0.880283 185.96 3.08099L182.304 17.9082C182.101 18.7305 181.999 19.5743 181.999 20.4212V69.7664C181.999 72.7088 183.303 75.4523 185.294 77.6187C185.461 77.801 185.612 77.9718 185.74 78.1253C186.62 79.1816 186.107 80.326 185.74 80.7661L176.717 89.789C175.661 90.8454 174.37 90.2292 173.856 89.789C171.436 87.2949 166.286 81.9985 165.054 80.7661C163.821 79.5337 164.54 78.4921 165.054 78.1253L165.725 77.4908C167.825 75.5078 169.015 72.7474 169.015 69.8594Z" fill="white"/>
<path fill-rule="evenodd" clip-rule="evenodd" d="M100.593 20.3468V69.6016C100.593 72.4896 99.4031 75.2501 97.3034 77.233L96.6316 77.8675C96.1181 78.2343 95.3992 79.276 96.6316 80.5084C97.864 81.7408 103.014 87.0371 105.434 89.5313C105.948 89.9714 107.239 90.5876 108.295 89.5313L117.318 80.5084C117.685 80.0682 118.199 78.9239 117.318 77.8675C117.148 77.6636 116.937 77.429 116.701 77.1774C114.797 75.1484 113.577 72.5418 113.577 69.759V68.8808C113.577 66.2548 114.834 63.7875 116.958 62.2438L120.469 59.6927C121.57 58.8925 123.082 58.9753 124.089 59.8909C124.538 60.2995 124.847 60.84 124.97 61.4349L128.326 77.6887C128.741 79.6963 129.735 81.5374 131.179 82.9929C133.685 85.5197 136.753 88.6451 137.545 89.569C138.601 90.8014 140.185 90.0825 140.846 89.569C142.9 87.5883 147.492 83.0989 149.428 80.9862C150.639 79.6658 149.428 76.8049 147.888 76.8049H145.059C144.477 76.8049 143.921 76.5633 143.524 76.1379L141.632 74.111C141.258 73.7101 140.968 73.2433 140.774 72.7302C138.775 67.4299 135.081 57.6883 134.244 55.678C133.922 54.9074 133.65 54.3476 133.427 53.9473C133.134 53.4227 132.661 52.9685 132.211 52.5358C132.093 52.4228 131.977 52.3112 131.866 52.2002C131.614 51.9483 131.651 51.5304 131.944 51.3275C134.75 49.3818 139.75 45.9367 141.066 45.1146C142.474 44.2343 141.799 42.4004 141.286 41.5935C138.938 38.1457 134.023 30.898 133.143 29.4895C132.263 28.0811 130.576 28.4625 129.842 28.8293L116.732 36.4567C115.333 37.271 113.577 36.2613 113.577 34.6421V20.1635C113.577 19.3166 113.68 18.4727 113.882 17.6505L117.538 2.82323C118.199 0.622517 114.743 -0.917981 113.357 0.622516C109.964 4.39234 104.068 4.31739 100.481 0.73111L100.373 0.622516C99.0524 -0.697911 96.0595 0.534488 96.4116 2.82323C96.7297 4.89103 98.8681 12.7431 100.198 17.4856C100.459 18.4173 100.593 19.3792 100.593 20.3468ZM113.577 47.1233V53.7526C113.577 55.4691 115.525 56.4601 116.913 55.4496L124.786 49.7155C126.622 48.3786 127.062 45.8246 125.779 43.9505L124.718 42.3998C123.414 40.493 120.814 39.9985 118.9 41.2931L115.423 43.6456C114.269 44.4266 113.577 45.7295 113.577 47.1233Z" fill="white"/>
<path d="M13.7423 72.4397V41.2129C13.7423 41.1292 13.7896 41.0527 13.8645 41.0153C16.7057 39.5947 20.0889 40.1198 22.2561 42.4424C23.0309 43.2728 23.8535 44.1453 24.7459 45.0376C26.1352 46.427 27.7986 46.0347 28.4384 45.8075C28.6214 45.7425 28.7903 45.6503 28.9589 45.554C31.1088 44.326 35.3272 41.9222 36.8498 41.0764C38.4343 40.1961 37.8034 38.6556 37.2899 37.9954C34.8692 35.5012 29.7635 30.2489 28.7072 29.1925C27.6508 28.1362 25.9196 28.7524 25.186 29.1925C17.997 32.9337 3.1349 40.3281 2.07856 40.8563C1.02222 41.3845 0.0979157 41.7366 0.0979162 43.057C0.0979167 44.3774 -0.122335 79.8089 0.097826 80.4691C0.278771 81.0117 6.703 87.2032 8.98588 89.3917C9.49817 89.8828 10.1768 90.1522 10.8864 90.1522C11.5899 90.1522 12.2667 89.8846 12.7769 89.4003C15.4953 86.8195 20.1106 82.3417 21.2248 80.9093C22.077 79.8135 21.5049 78.6546 20.7313 77.8255C20.1212 77.1718 19.2088 76.948 18.3147 76.948H18.2505C17.0549 76.948 15.9082 76.473 15.0628 75.6275C14.2173 74.7821 13.7423 73.6354 13.7423 72.4397Z" fill="white"/>
<path d="M61.7179 72.4397V41.2129C61.7179 41.1292 61.7652 41.0527 61.8401 41.0153C64.6813 39.5947 68.0645 40.1198 70.2317 42.4424C71.0065 43.2728 71.8291 44.1453 72.7215 45.0376C74.1108 46.427 75.7742 46.0347 76.4139 45.8075C76.5969 45.7425 76.7659 45.6503 76.9345 45.554C79.0844 44.326 83.3028 41.9222 84.8254 41.0764C86.4099 40.1961 85.779 38.6556 85.2655 37.9954C82.8447 35.5012 77.7391 30.2489 76.6827 29.1925C75.6264 28.1362 73.8952 28.7524 73.1616 29.1925C65.9726 32.9337 51.1105 40.3281 50.0541 40.8563C48.9978 41.3845 48.0735 41.7366 48.0735 43.057C48.0735 44.3774 47.8533 79.8089 48.0734 80.4691C48.2544 81.0117 54.6786 87.2032 56.9615 89.3917C57.4738 89.8828 58.1524 90.1522 58.862 90.1522C59.5655 90.1522 60.2423 89.8846 60.7525 89.4003C63.4709 86.8195 68.0862 82.3417 69.2003 80.9093C70.0526 79.8135 69.4805 78.6546 68.7069 77.8255C68.0968 77.1718 67.1844 76.948 66.2903 76.948H66.2261C65.0305 76.948 63.8838 76.473 63.0383 75.6275C62.1929 74.7821 61.7179 73.6354 61.7179 72.4397Z" fill="white"/>
<path fill-rule="evenodd" clip-rule="evenodd" d="M166.846 118.873H217.668C214.776 130.098 173.433 139 122.857 139C72.2802 139 30.9373 130.098 28.0456 118.873H81.5077L84.0975 125.792H87.5987L90.1417 118.873H100.681V125.792H104.077V118.873H112.863V125.792H118.943C123.102 125.792 126.075 122.974 126.415 118.873H134.36V125.792H144.214V122.647H137.757V119.439H143.48V118.873H151.715C152.057 123.154 155.033 126.043 159.25 126.043C163.48 126.043 166.491 123.145 166.846 118.873ZM166.78 116.567H217.718C215.29 105.244 173.748 96.2308 122.857 96.2308C71.9657 96.2308 30.4235 105.244 27.9961 116.567H80.6445L78.2901 110.278H81.9171L84.2715 116.567H87.4374L89.7581 110.278H93.3013L90.9894 116.567H100.681V110.278H104.077V116.567H112.863V110.278H118.733C122.767 110.278 125.713 112.783 126.329 116.567H134.36V110.278H144.214V113.422H137.757V116.462H143.48V116.567H151.786C152.361 112.63 155.264 110.005 159.271 110.005C163.304 110.005 166.212 112.623 166.78 116.567ZM155.404 116.567C155.828 114.486 157.218 113.276 159.292 113.276C161.348 113.276 162.735 114.486 163.159 116.567H155.404ZM155.312 118.873H163.25C162.979 121.301 161.533 122.773 159.292 122.773C157.029 122.773 155.58 121.331 155.312 118.873ZM122.694 116.567C122.206 114.561 120.684 113.422 118.397 113.422H116.259V116.567H122.694ZM116.259 118.873V122.647H118.607C121.032 122.647 122.55 121.26 122.82 118.873H116.259ZM86.5969 118.873H85.118C85.3633 119.607 85.5889 120.394 85.8376 121.389C86.1273 120.307 86.3616 119.557 86.5969 118.873Z" fill="white"/>
</svg>
